<?xml version="1.0" encoding="UTF-8" standalone="no"?>
<!-- Created with Inkscape (http://www.inkscape.org/) -->

<svg
   xmlns:dc="http://purl.org/dc/elements/1.1/"
   xmlns:cc="http://creativecommons.org/ns#"
   xmlns:rdf="http://www.w3.org/1999/02/22-rdf-syntax-ns#"
   xmlns:svg="http://www.w3.org/2000/svg"
   xmlns="http://www.w3.org/2000/svg"
   xmlns:sodipodi="http://sodipodi.sourceforge.net/DTD/sodipodi-0.dtd"
   xmlns:inkscape="http://www.inkscape.org/namespaces/inkscape"
   width="84.242073mm"
   height="75.942932mm"
   viewBox="0 0 84.242073 75.942932"
   version="1.1"
   id="svg6672"
   inkscape:version="0.92.1 r15371"
   sodipodi:docname="GeekText.svg">
  <defs
     id="defs6666" />
  <sodipodi:namedview
     id="base"
     pagecolor="#ffffff"
     bordercolor="#666666"
     borderopacity="1.0"
     inkscape:pageopacity="0.0"
     inkscape:pageshadow="2"
     inkscape:zoom="0.98994949"
     inkscape:cx="-72.673152"
     inkscape:cy="82.011821"
     inkscape:document-units="mm"
     inkscape:current-layer="layer1"
     showgrid="false"
     inkscape:window-width="1360"
     inkscape:window-height="705"
     inkscape:window-x="-8"
     inkscape:window-y="-8"
     inkscape:window-maximized="1"
     inkscape:pagecheckerboard="true" />
  <metadata
     id="metadata6669">
    <rdf:RDF>
      <cc:Work
         rdf:about="">
        <dc:format>image/svg+xml</dc:format>
        <dc:type
           rdf:resource="http://purl.org/dc/dcmitype/StillImage" />
        <dc:title></dc:title>
      </cc:Work>
    </rdf:RDF>
  </metadata>
  <g
     inkscape:label="Layer 1"
     inkscape:groupmode="layer"
     id="layer1"
     transform="translate(-11.551582,-8.0523444)">
    <path
       style="opacity:1;fill:#5ca212;fill-opacity:1;fill-rule:nonzero;stroke:none;stroke-width:3.4441421;stroke-linecap:butt;stroke-linejoin:bevel;stroke-miterlimit:4;stroke-dasharray:none;stroke-opacity:1;paint-order:stroke markers fill"
       d="M 59.357422 30.177734 A 141.73228 141.73228 0 0 0 0 145.29688 A 141.73228 141.73228 0 0 0 141.73242 287.0293 A 141.73228 141.73228 0 0 0 283.42383 146.43945 L 318.39453 142.66406 C 318.39453 142.66406 317.62395 142.34876 283.12305 138.56641 A 141.73228 141.73228 0 0 0 260.42383 67.917969 A 134.20254 134.14391 44.998671 0 1 277.80664 138.45508 L 241.71875 142.05273 C 241.71875 142.05273 242.38531 142.3658 277.43555 146.49414 A 134.20254 134.14391 44.998671 0 1 266.06836 189.76562 A 134.20254 134.14391 44.998671 0 1 88.390625 256.28711 A 134.20254 134.14391 44.998671 0 1 21.791016 78.582031 A 134.20254 134.14391 44.998671 0 1 59.357422 30.177734 z "
       transform="matrix(0.26458333,0,0,0.26458333,11.551582,8.0523444)"
       id="path4513-4" />
    <a
       transform="matrix(0.7835134,0,0,1.5670268,28.179761,-359.20544)"
       id="a4561-6-2-5-1-0-0-3-3-6">
      <path
         id="rect4633-5-5-7-7-9-4-6-8-7-5-2-1-1-7-8-8-1-3-7-1-3-6"
         style="opacity:1;fill:#000000;fill-opacity:1;fill-rule:nonzero;stroke:none;stroke-width:2.82842708;stroke-linecap:butt;stroke-linejoin:bevel;stroke-miterlimit:4;stroke-dasharray:none;stroke-opacity:1;paint-order:normal"
         d="m 51,249 h 4 v 1 h -4 z m 0,-1 h 4 v 1 h -4 z m 0,-1 h 4 v 1 h -4 z m 0,9 h 4 v 1 h -4 z m 2e-6,-1 h 4 v 1 h -4 z M 51,254 h 4 v 1 h -4 z m -2.000001,-1 h 4 v 1 h -4 z m 0,-3 h 4 v 1 h -4 z M 43,248 h 4 v 1 h -4 z m -2.000002,-1.00001 h 6.000001 v 1 h -6.000001 z m 0,9.00002 h 6.000001 v 1 H 40.999998 Z M 43,249 h 4 v 1 h -4 z m 0,6 h 4 v 1 h -4 z m 0,-5 h 4 v 1 h -4 z m 0,4 h 4 v 1 h -4 z m 10e-7,-1 h 4 v 1 h -4 z m 3e-6,-1 h 8.000001 v 1 h -8.000001 z m 0,-1 h 8.000001 v 1 h -8.000001 z m -12.000003,-1 h 2 v 1 h -2 z m 0,2 h 2 v 1 h -2 z m 0,-1.00001 h 2 v 1 h -2 z m -1.999998,0 h 2.000001 v 1 h -2.000001 z m 5.999998,-2 h 2.000001 V 250 h -2.000001 z m -1.999996,-1 h 4 v 1 h -4 z M 24.999996,250 h 4 v 1 h -4 z m 0,-1.00001 h 4 V 250 h -4 z m 0,-1 h 4 v 1 h -4 z m 0,6.00001 h 4 v 1 h -4 z m 0,-1.00001 h 4 v 1 h -4 z m 0,-0.99999 h 4 v 1 h -4 z m 0,-1.00001 h 4 v 1 h -4 z M 35.000001,254 h 2.000001 v 1 h -2.000001 z m -1.999996,1 h 4 v 1 h -4 z m -8.000009,0 h 4 v 1 h -4 z m -1.999997,1.00001 H 37 v 1 H 22.999999 Z m 0,-9.00002 H 37 v 1 H 22.999999 Z M 13.000001,250 h 2.000001 v 1 h -2.000001 z m 0,2 h 2.000001 v 1 h -2.000001 z m 0,-1.00001 h 2.000001 v 1 h -2.000001 z m -2.000003,0 h 2 v 1 h -2 z m 6.000005,-2 h 1.999999 V 250 h -1.999999 z m -1.999998,-1 h 4 v 1 h -4 z M 7.0000031,250 h 3.9999999 v 1 H 7.0000031 Z m 0,-1.00001 H 11.000003 V 250 H 7.0000031 Z m 0,-1 h 3.9999999 v 1 H 7.0000031 Z m 0,6.00001 h 3.9999999 v 1 H 7.0000031 Z m 0,-1.00001 h 3.9999999 v 1 H 7.0000031 Z m 0,-0.99999 h 3.9999999 v 1 H 7.0000031 Z m 0,-1.00001 h 3.9999999 v 1 H 7.0000031 Z M 17.000003,254 h 1.999999 v 1 h -1.999999 z m -1.999998,1 h 4 v 1 h -4 z m -8.0000019,0 h 3.9999999 v 1 H 7.0000031 Z m -2.0000025,1.00001 H 19 v 1 H 5.0000006 Z m 0,-9.00002 H 19 v 1 H 5.0000006 Z m -5.99999778,2 H 1.0000021 V 250 H -0.99999718 Z M -6.9999982,252 h 8.0000003 v 1 h -8.0000003 z m 3.9999969,0.99999 h 4.00000011 v 1 H -3.0000013 Z m 0,1.00001 h 4.00000011 v 1 H -3.0000013 Z m 2.00000412,2.00001 H 1.0000021 v 1 H -0.99999718 Z M -3.0000013,255 h 4.00000011 v 1 H -3.0000013 Z m -5.7999961,1.00001 h 6.0000011 v 1 H -8.7999974 Z M -10.999998,255 h 3.9999998 v 1 h -3.9999998 z m -2.000001,-1 h 3.9999999 v 1 h -3.9999999 z m 0,-1.00001 h 3.9999999 v 1 h -3.9999999 z m 0,-0.99999 h 3.9999999 v 1 h -3.9999999 z m 0,-1.00001 h 3.9999999 v 1 h -3.9999999 z m 0,-0.99999 h 3.9999999 v 1 h -3.9999999 z m 0,-1.00001 h 3.9999999 V 250 h -3.9999999 z m 9.9999977,-1 h 4.00000011 v 1 H -3.0000013 Z m -7.9999967,0 h 3.9999998 v 1 h -3.9999998 z m 1.9999989,-1 h 8.00000029 v 1 H -8.9999991 Z"
         inkscape:connector-curvature="0" />
    </a>
    <path
       id="rect4633-5-5-5-3-7-1-8-4-2"
       style="opacity:1;fill:#000000;fill-opacity:1;fill-rule:nonzero;stroke:none;stroke-width:3.12619281;stroke-linecap:butt;stroke-linejoin:bevel;stroke-miterlimit:4;stroke-dasharray:none;stroke-opacity:1;paint-order:normal"
       d="m 71.792861,57.863888 h 3.126193 v 1.5631 h -3.126193 z m 0,1.5631 h 3.126193 v 1.56309 h -3.126193 z m 0,-7.815491 h 3.126193 v 1.5631 h -3.126193 z m 0,-1.5631 h 3.126193 v 1.5631 h -3.126193 z m 0,6.25238 h 3.126193 v 1.56309 h -3.126193 z m 0,-1.563079 h 3.126193 v 1.56309 h -3.126193 z m 0,-1.563121 h 3.126193 v 1.5631 h -3.126193 z m -1.563113,7.815519 h 6.252392 v 1.563092 H 70.229748 Z M 68.666666,50.048397 h 1.563095 v 1.5631 h -1.563095 z m 7.815474,0 h 1.563095 v 1.5631 H 76.48214 Z m -7.815474,-1.56311 h 9.378583 v 1.5631 h -9.378583 z m 0,-1.56308 h 9.378583 v 1.5631 h -9.378583 z m -9.378577,9.25125 h 1.563095 v 1.56309 h -1.563095 z m 0,-4.56196 h 1.563095 v 1.5631 H 59.288089 Z M 57.725,54.737698 h 4.689287 v 1.56309 H 57.725 Z m 0,-1.563121 h 4.689287 v 1.5631 H 57.725 Z m 4.689276,-4.68926 h 3.126195 v 1.5631 h -3.126195 z m 0,-1.5631 h 3.126195 v 1.5631 h -3.126195 z m -1.563094,4.6893 h 3.126192 v 1.56309 h -3.126192 z m 0,-1.5631 h 3.126192 v 1.5631 h -3.126192 z m -4.68929,7.815481 h 3.126192 v 1.563098 h -3.126192 z m 0,-1.56311 h 3.126192 v 1.5631 h -3.126192 z m -1.563098,4.689308 h 3.126193 v 1.563092 h -3.126193 z m 0,-1.5631 h 3.126193 v 1.5631 h -3.126193 z m 6.252388,-1.69046 h 3.126192 v 1.5631 h -3.126192 z m 0,-1.563079 h 3.126192 v 1.56309 h -3.126192 z m 1.563094,4.68929 h 3.126195 v 1.563081 h -3.126195 z m 0,-1.563111 h 3.126195 v 1.563092 H 62.414276 Z M 54.598797,48.485317 h 3.126192 v 1.5631 h -3.126192 z m 0,-1.5631 h 3.126192 v 1.5631 h -3.126192 z m 1.563097,4.6893 h 3.126195 v 1.56309 h -3.126195 z m 0,-1.5631 h 3.126195 v 1.5631 h -3.126195 z m -9.378579,1.56308 h 1.563097 v 1.5631 h -1.563097 z m 0,3.126201 h 1.563097 v 1.56309 h -1.563097 z m 0,-1.563121 h 1.563097 v 1.5631 h -1.563097 z m -1.563098,0 h 1.563098 v 1.5631 h -1.563098 z m 4.689287,-3.12618 h 1.563095 v 1.5631 h -1.563095 z m -1.563089,-1.56311 h 3.126192 v 1.5631 h -3.126192 z m -6.252384,3.12621 h 3.126192 v 1.5631 h -3.126192 z m 0,-1.5631 h 3.126192 v 1.5631 h -3.126192 z m 0,-1.56311 h 3.126192 v 1.5631 h -3.126192 z m 0,9.378601 h 3.126192 v 1.5631 h -3.126192 z m 0,-1.563111 h 3.126192 v 1.56309 h -3.126192 z m 0,-1.563079 h 3.126192 v 1.56309 h -3.126192 z m 0,-1.563121 h 3.126192 v 1.5631 h -3.126192 z m 7.815473,4.689311 h 1.563095 v 1.5631 h -1.563095 z m -1.563089,1.5631 h 3.126192 v 1.56309 h -3.126192 z m -6.252384,0 h 3.126192 v 1.56309 h -3.126192 z m -1.5631,1.563108 h 10.941676 v 1.563092 H 40.530931 Z m 0,-14.067889 h 10.941676 v 1.5631 H 40.530931 Z m -9.378584,10.941681 h 3.126192 v 1.5631 h -3.126192 z m 0,1.5631 h 3.126192 v 1.56309 h -3.126192 z m 0,-7.815491 h 3.126192 v 1.5631 h -3.126192 z m 0,-1.5631 h 3.126192 v 1.5631 h -3.126192 z m 0,6.25238 h 3.126192 v 1.56309 h -3.126192 z m 0,-1.563079 h 3.126192 v 1.56309 h -3.126192 z m 0,-1.563121 h 3.126192 v 1.5631 h -3.126192 z m -1.563087,7.815519 h 6.252385 v 1.563092 H 29.58926 Z M 28.026159,50.048397 h 1.563096 v 1.5631 h -1.563096 z m 7.815485,0 h 1.563097 v 1.5631 h -1.563097 z m -7.815485,-1.56311 h 9.378577 v 1.5631 h -9.378577 z m 0,-1.56308 h 9.378577 v 1.5631 h -9.378577 z"
       inkscape:connector-curvature="0" />
  </g>
</svg>
